<svg xmlns="http://www.w3.org/2000/svg" width="20.764" height="11.931" viewBox="0 0 20.764 11.931"><path d="M-23.429-5.234a1.247,1.247,0,0,0-.293.431,1.377,1.377,0,0,0-.1.526,1.338,1.338,0,0,0,.181.692,1.372,1.372,0,0,0,.488.49,1.322,1.322,0,0,0,.689.182,1.3,1.3,0,0,0,.987-.412l8.613-8.816h-1.144l8.6,8.816a1.311,1.311,0,0,0,.985.412,1.322,1.322,0,0,0,.689-.182,1.372,1.372,0,0,0,.488-.49,1.338,1.338,0,0,0,.181-.692,1.28,1.28,0,0,0-.4-.957l-8.92-9.129a1.64,1.64,0,0,0-.492-.356,1.364,1.364,0,0,0-.568-.125,1.436,1.436,0,0,0-1.07.48Z" transform="translate(23.822 14.843)" fill="#fff"/></svg>