<?xml version="1.0" encoding="UTF-8"?>
<svg id="Layer_1" data-name="Layer 1" xmlns="http://www.w3.org/2000/svg" version="1.1" viewBox="0 0 11.9 20.8">
  <defs>
    <style>
      .cls-1 {
        fill: #203877;
        stroke-width: 0px;
      }
    </style>
  </defs>
  <path class="cls-1" d="M2.3.4c0,0-.3-.2-.4-.3C1.7,0,1.5,0,1.4,0,1.2,0,.9,0,.7.2c-.2.1-.4.3-.5.5-.2.2-.2.4-.2.7s.1.7.4,1l8.8,8.6v-1.1L.4,18.4c-.3.3-.4.6-.4,1s0,.5.2.7c.1.2.3.4.5.5s.4.2.7.2.7-.1,1-.4l9.1-8.9c.1-.1.3-.3.4-.5,0-.2.1-.4.1-.6,0-.4-.2-.8-.5-1.1L2.3.4Z"/>
</svg>