<?xml version="1.0" encoding="UTF-8"?>
<svg id="Layer_1" data-name="Layer 1" xmlns="http://www.w3.org/2000/svg" version="1.1" viewBox="0 0 14 14.2">
  <defs>
    <style>
      .cls-1 {
        fill: #fff;
        stroke-width: 0px;
      }
    </style>
  </defs>
  <path id="noun-date-1146232" class="cls-1" d="M11.4,1.2h-.6v-.3c0-.5-.4-.8-.9-.8-.4,0-.8.4-.8.8v.3h-4.3v-.3C4.8.4,4.4,0,3.9,0c-.4,0-.8.4-.8.8v.3h-.6C1.1,1.2,0,2.3,0,3.7v7.9c0,1.4,1.1,2.6,2.6,2.6h8.9c1.4,0,2.6-1.1,2.6-2.6V3.7c0-1.4-1.1-2.6-2.6-2.6h0ZM2.6,2.9h.6v.8h0c0,.5.4.9.8.9.5,0,.9-.4.9-.8,0,0,0,0,0,0v-.8h4.3v.8c0,.5.4.9.8.9.5,0,.9-.4.9-.8,0,0,0,0,0,0v-.8h.6c.5,0,.9.4.9.9h0v1.7H1.7v-1.7c0-.5.4-.9.9-.9h0ZM11.4,12.5H2.6c-.5,0-.9-.4-.9-.9h0v-4.4h10.6v4.4c0,.5-.4.9-.9.9h0Z"/>
</svg>