<svg xmlns="http://www.w3.org/2000/svg" width="40" height="39.991" viewBox="0 0 40 39.991"><path d="M20-6.515A10.253,10.253,0,1,0,30.255,3.739,10.237,10.237,0,0,0,20-6.515ZM20,10.4a6.666,6.666,0,1,1,6.666-6.666A6.678,6.678,0,0,1,20,10.4ZM33.066-6.934a2.392,2.392,0,0,0-2.392-2.392,2.392,2.392,0,0,0-2.392,2.392,2.386,2.386,0,0,0,2.392,2.392A2.386,2.386,0,0,0,33.066-6.934Zm6.791,2.427c-.152-3.2-.883-6.041-3.23-8.379s-5.176-3.07-8.379-3.23c-3.3-.187-13.2-.187-16.5,0-3.195.152-6.032.883-8.379,3.221S.3-7.719.138-4.516c-.187,3.3-.187,13.2,0,16.5.152,3.2.883,6.041,3.23,8.379s5.176,3.07,8.379,3.23c3.3.187,13.2.187,16.5,0,3.2-.152,6.041-.883,8.379-3.23s3.07-5.176,3.23-8.379C40.044,8.682,40.044-1.2,39.857-4.507ZM35.591,15.527a6.749,6.749,0,0,1-3.8,3.8c-2.632,1.044-8.879.8-11.788.8s-9.165.232-11.788-.8a6.749,6.749,0,0,1-3.8-3.8c-1.044-2.632-.8-8.879-.8-11.788s-.232-9.165.8-11.788a6.749,6.749,0,0,1,3.8-3.8c2.632-1.044,8.879-.8,11.788-.8s9.165-.232,11.788.8a6.749,6.749,0,0,1,3.8,3.8c1.044,2.632.8,8.879.8,11.788S36.635,12.9,35.591,15.527Z" transform="translate(0.003 16.257)" fill="#fff"/></svg>