<?xml version="1.0" encoding="UTF-8"?>
<svg id="Layer_1" data-name="Layer 1" xmlns="http://www.w3.org/2000/svg" version="1.1" viewBox="0 0 14.4 14.4">
  <defs>
    <style>
      .cls-1 {
        fill: #000;
        fill-opacity: 0;
      }

      .cls-1, .cls-2 {
        stroke-width: 0px;
      }

      .cls-2 {
        fill: #203877;
      }
    </style>
  </defs>
  <rect class="cls-1" y="0" width="14.4" height="14.4"/>
  <g id="noun-external-link-189137">
    <g id="Group_82" data-name="Group 82">
      <path id="Path_19" data-name="Path 19" class="cls-2" d="M13.7,0h-4.6C8.8,0,8.5.3,8.5.7s.3.7.7.7h3.1l-6.6,6.6c-.3.3-.3.7,0,.9.3.3.7.3.9,0l6.5-6.5v2.9c0,.4.3.7.7.7s.7-.3.7-.7V.7C14.4.3,14.1,0,13.7,0Z"/>
      <path id="Path_20" data-name="Path 20" class="cls-2" d="M11.4,6.7c-.4,0-.7.3-.7.7v5.3c0,.2-.2.4-.4.4H1.8c-.2,0-.4-.2-.4-.4V4.1c0-.2.2-.4.4-.4h5.3c.4,0,.7-.3.7-.7s-.3-.7-.7-.7H1.8C.8,2.4,0,3.2,0,4.1v8.5c0,1,.8,1.8,1.8,1.8h8.5c1,0,1.8-.8,1.8-1.8v-5.3c0-.4-.3-.7-.7-.7Z"/>
    </g>
  </g>
</svg>