<svg xmlns="http://www.w3.org/2000/svg" width="40" height="40" viewBox="0 0 40 40"><path d="M37.143-16.25H2.848A2.869,2.869,0,0,0,0-13.366V20.866A2.869,2.869,0,0,0,2.848,23.75H37.143A2.877,2.877,0,0,0,40,20.866V-13.366A2.877,2.877,0,0,0,37.143-16.25ZM12.089,18.036H6.161V-1.054H12.1V18.036ZM9.125-3.661A3.439,3.439,0,0,1,5.688-7.1a3.439,3.439,0,0,1,3.438-3.438A3.445,3.445,0,0,1,12.563-7.1,3.433,3.433,0,0,1,9.125-3.661Zm25.187,21.7H28.384V8.75c0-2.214-.045-5.063-3.08-5.063-3.089,0-3.562,2.411-3.562,4.9v9.446H15.813V-1.054H21.5V1.554h.08A6.244,6.244,0,0,1,27.2-1.527c6,0,7.116,3.955,7.116,9.1Z" transform="translate(0 16.25)" fill="#fff"/></svg>