<?xml version="1.0" encoding="UTF-8"?>
<svg id="Layer_1" data-name="Layer 1" xmlns="http://www.w3.org/2000/svg" version="1.1" viewBox="0 0 14 19.3">
  <defs>
    <style>
      .cls-1 {
        fill: #fff;
        fill-rule: evenodd;
        stroke-width: 0px;
      }
    </style>
  </defs>
  <path class="cls-1" d="M6,18.7L1.9,12.4C-.3,9-.9,4.9,1.9,2.1c2.8-2.8,7.4-2.8,10.3,0,2.8,2.8,2.2,6.9,0,10.2l-4.1,6.4c-.3.5-1.1.7-1.6.3-.1,0-.3-.2-.3-.3ZM7,3.9c-1.9,0-3.4,1.5-3.4,3.4,0,1.9,1.5,3.4,3.4,3.4s3.4-1.5,3.4-3.4c0-.9-.4-1.8-1-2.4-.6-.6-1.5-1-2.4-1h0Z"/>
</svg>