<svg xmlns="http://www.w3.org/2000/svg" width="40" height="32.487" viewBox="0 0 40 32.487"><path d="M35.888-7.525c.025.355.025.711.025,1.066,0,10.838-8.249,23.325-23.325,23.325A23.167,23.167,0,0,1,0,13.185a16.959,16.959,0,0,0,1.98.1,16.418,16.418,0,0,0,10.178-3.5A8.212,8.212,0,0,1,4.492,4.1a10.338,10.338,0,0,0,1.548.127A8.671,8.671,0,0,0,8.2,3.947,8.2,8.2,0,0,1,1.624-4.1v-.1A8.256,8.256,0,0,0,5.33-3.16,8.192,8.192,0,0,1,1.675-9.987a8.136,8.136,0,0,1,1.117-4.137A23.3,23.3,0,0,0,19.7-5.546a9.255,9.255,0,0,1-.2-1.878,8.194,8.194,0,0,1,8.2-8.2,8.178,8.178,0,0,1,5.99,2.589,16.14,16.14,0,0,0,5.2-1.98,8.176,8.176,0,0,1-3.6,4.518A16.435,16.435,0,0,0,40-11.764a17.622,17.622,0,0,1-4.112,4.239Z" transform="translate(0 15.622)" fill="#fff"/></svg>