<?xml version="1.0" standalone="no"?>
<!DOCTYPE svg PUBLIC "-//W3C//DTD SVG 20010904//EN"
 "http://www.w3.org/TR/2001/REC-SVG-20010904/DTD/svg10.dtd">
<svg version="1.0" xmlns="http://www.w3.org/2000/svg"
 width="260.000000pt" height="260.000000pt" viewBox="0 0 260.000000 260.000000"
 preserveAspectRatio="xMidYMid meet">
<metadata>
Created by potrace 1.14, written by Peter Selinger 2001-2017
</metadata>
<g transform="translate(0.000000,260.000000) scale(0.100000,-0.100000)"
fill="#000000" stroke="none">
<path d="M0 1300 l0 -1300 1300 0 1300 0 0 1300 0 1300 -1300 0 -1300 0 0
-1300z m2046 886 c17 -13 19 -33 26 -242 8 -264 8 -264 -72 -264 -69 0 -85 18
-104 117 -24 118 -44 177 -79 219 -51 61 -92 74 -245 74 l-133 0 3 -732 c3
-686 4 -735 21 -766 21 -39 84 -71 139 -72 20 0 48 -4 62 -10 22 -8 26 -16 26
-49 0 -21 -6 -43 -13 -49 -9 -8 -132 -12 -382 -12 -342 -1 -370 0 -382 16 -15
20 -17 62 -4 82 4 8 41 18 82 23 85 10 115 28 144 85 19 38 20 62 23 762 l3
722 -138 0 c-159 0 -199 -12 -250 -75 -32 -38 -64 -131 -82 -240 -7 -40 -18
-66 -32 -77 -26 -22 -111 -24 -128 -4 -9 10 -11 79 -9 246 3 216 4 233 22 246
29 21 1473 21 1502 0z"/>
</g>
</svg>
